<?xml version="1.0" standalone="no"?>
<!DOCTYPE svg PUBLIC "-//W3C//DTD SVG 20010904//EN"
 "http://www.w3.org/TR/2001/REC-SVG-20010904/DTD/svg10.dtd">
<svg version="1.0" xmlns="http://www.w3.org/2000/svg"
 width="273.000000pt" height="273.000000pt" viewBox="0 0 273.000000 273.000000"
 preserveAspectRatio="xMidYMid meet">
<metadata>
Created by potrace 1.14, written by Peter Selinger 2001-2017
</metadata>
<g transform="translate(0.000000,273.000000) scale(0.100000,-0.100000)"
fill="#000000" stroke="none">
<path d="M2443 2647 c-17 -21 -17 -21 0 -7 20 15 55 21 62 10 2 -3 -6 -7 -17
-7 -12 -1 -26 -7 -32 -14 -8 -9 -7 -10 3 -4 11 6 13 4 8 -8 -3 -9 -1 -19 5
-23 6 -4 8 -3 5 3 -3 5 0 10 8 10 9 0 11 -4 6 -11 -5 -6 -7 -19 -6 -29 2 -9
-1 -15 -6 -11 -5 3 -7 9 -4 14 3 4 -1 10 -8 13 -7 3 -13 -3 -13 -14 0 -10 2
-16 4 -14 3 2 11 -3 19 -11 9 -8 13 -18 9 -21 -3 -4 -6 -2 -6 3 0 4 -7 -2 -16
-14 -17 -24 -14 -39 5 -27 6 3 9 11 6 16 -4 5 -2 9 3 9 5 0 9 -16 9 -36 0 -29
-3 -35 -19 -31 -10 3 -18 1 -18 -4 0 -5 -5 -9 -11 -9 -6 0 -8 7 -5 16 3 8 2
12 -4 9 -5 -3 -8 -19 -6 -35 2 -16 1 -29 -3 -28 -3 0 -8 0 -11 -2 -23 -9 -50
-8 -45 1 4 6 14 8 22 5 9 -4 11 -2 7 6 -4 6 -3 8 2 5 6 -3 10 5 10 18 0 24
-11 25 -11 2 0 -7 -8 -11 -18 -11 -9 1 -14 -2 -11 -7 3 -5 0 -9 -6 -9 -7 0
-10 -6 -7 -14 8 -20 -4 -28 -20 -14 -11 8 -12 7 -7 -6 7 -19 9 -19 37 -5 20 9
21 9 4 -5 -10 -8 -18 -17 -18 -20 3 -24 -1 -27 -14 -10 -13 18 -14 17 -10 -13
2 -24 0 -30 -10 -27 -8 3 -11 12 -8 20 3 8 1 14 -4 14 -5 0 -10 -11 -11 -26
-1 -14 2 -23 7 -20 5 3 15 -2 22 -12 12 -15 12 -16 -1 -6 -8 6 -25 10 -37 8
-13 -2 -23 1 -23 7 0 5 4 8 9 5 5 -4 7 4 3 16 -4 16 -7 18 -10 8 -6 -19 -38
-50 -45 -44 -3 3 -8 1 -11 -4 -7 -12 13 -10 32 1 16 11 15 -1 -2 -18 -7 -8
-16 -11 -20 -8 -3 3 -9 -2 -12 -12 -4 -10 -1 -21 7 -26 10 -6 7 -9 -12 -9 -15
0 -29 -6 -32 -14 -3 -8 -16 -12 -31 -11 -14 2 -24 -1 -20 -6 3 -5 1 -9 -5 -9
-6 0 -15 -9 -21 -20 -8 -15 -6 -23 12 -41 l23 -21 -22 11 c-12 6 -26 18 -31
27 -8 15 -10 15 -15 0 -4 -10 -3 -14 3 -11 5 3 14 -5 21 -17 9 -19 9 -21 -2
-11 -10 10 -17 9 -33 -6 -12 -11 -25 -21 -31 -23 -5 -2 -9 -7 -7 -13 1 -5 -5
-1 -13 9 -8 11 -15 15 -15 9 0 -7 7 -19 16 -28 13 -13 14 -16 3 -15 -29 4 -39
0 -38 -17 0 -11 3 -13 6 -5 2 6 9 12 15 12 6 0 4 -8 -4 -17 -9 -10 -13 -25
-11 -33 4 -13 3 -13 -6 0 -5 8 -8 17 -5 21 2 4 0 11 -6 14 -6 4 -10 3 -9 -2 3
-20 -2 -34 -11 -28 -6 4 -9 1 -8 -7 2 -7 -3 -12 -9 -11 -7 2 -12 -1 -10 -6 1
-5 -2 -9 -8 -9 -5 0 -9 4 -8 9 2 5 -2 9 -7 9 -6 0 -9 -10 -6 -23 2 -12 -2 -31
-10 -42 -8 -10 -14 -14 -14 -9 0 6 5 15 12 22 9 9 9 12 0 12 -19 0 -33 -35
-19 -50 10 -12 9 -12 -6 0 -10 8 -15 20 -12 29 5 12 3 13 -5 5 -9 -9 -9 -17
-1 -33 7 -12 8 -21 4 -22 -4 0 1 -4 12 -9 19 -8 19 -9 1 -9 -16 -1 -17 -3 -5
-18 10 -14 8 -13 -10 2 -18 15 -23 16 -19 5 4 -11 -1 -16 -13 -17 -16 -2 -17
1 -6 18 6 10 17 17 23 15 13 -5 13 20 1 29 -4 3 -5 2 -3 -1 2 -3 -7 -16 -21
-30 -20 -20 -22 -28 -13 -39 10 -12 8 -13 -12 -9 -12 3 -29 6 -35 6 -7 1 -13
6 -13 11 0 6 -3 8 -6 4 -3 -3 -2 -12 2 -19 14 -22 13 -37 -2 -31 -8 3 -11 9
-8 14 3 5 -2 6 -11 2 -13 -5 -14 -7 -3 -14 11 -8 11 -10 -1 -18 -9 -6 -10 -11
-2 -15 6 -4 11 -2 11 3 0 6 5 11 11 11 5 0 8 -4 5 -9 -4 -5 -3 -11 1 -14 5 -2
4 -3 -2 -2 -17 3 -70 -31 -70 -46 0 -8 -7 -14 -15 -14 -8 -1 -14 -7 -12 -15 3
-12 1 -13 -10 -2 -11 11 -10 14 2 22 8 5 18 6 22 4 4 -3 5 2 1 11 -5 13 -7 14
-14 3 -5 -7 -9 -8 -9 -3 0 6 -7 -1 -15 -15 -8 -14 -14 -19 -15 -11 0 8 -2 12
-5 9 -10 -9 7 -38 18 -31 6 3 7 1 3 -5 -4 -7 -14 -12 -22 -12 -9 0 -12 5 -8
12 5 7 3 8 -5 3 -9 -5 -9 -11 -3 -17 6 -6 8 -17 5 -24 -4 -10 0 -12 11 -8 9 3
16 1 16 -6 0 -6 -4 -9 -9 -5 -5 3 -13 1 -16 -5 -5 -8 -11 -7 -21 1 -8 6 -17 9
-21 5 -3 -3 0 -6 8 -6 9 0 10 -3 3 -8 -6 -4 -15 -15 -21 -26 -9 -16 -11 -17
-16 -2 -4 10 -3 15 1 12 5 -3 9 0 9 7 0 7 -8 13 -18 13 -10 0 -15 -4 -13 -8 8
-12 -36 -69 -47 -62 -5 3 -8 2 -7 -3 1 -4 -4 -18 -11 -31 -10 -19 -10 -26 1
-40 9 -11 10 -14 1 -8 -8 4 -13 2 -14 -6 0 -7 -4 -3 -10 10 -5 13 -14 20 -19
17 -8 -5 -8 -11 -1 -19 8 -9 6 -12 -9 -11 -11 1 -23 5 -27 10 -5 4 -2 5 5 1 6
-4 12 -2 12 4 0 7 -6 10 -12 7 -7 -2 -22 3 -33 12 -18 15 -19 15 -7 0 10 -14
9 -17 -8 -22 -17 -4 -20 -2 -14 15 4 15 3 18 -6 13 -6 -4 -10 -17 -8 -29 4
-18 0 -22 -21 -21 -15 0 -25 6 -23 13 1 7 -4 12 -10 12 -9 0 -8 3 2 10 8 5 12
11 9 15 -3 3 -14 -5 -25 -17 -10 -12 -13 -18 -6 -14 6 4 12 2 12 -4 0 -7 -6
-10 -12 -7 -7 2 -13 11 -12 19 1 11 -10 13 -48 12 -28 -2 -46 1 -43 6 4 6 -2
7 -12 3 -16 -6 -17 -5 -3 12 14 16 13 17 -8 11 -13 -4 -22 -3 -22 3 0 5 9 13
20 16 11 3 20 11 20 16 0 6 -4 8 -9 5 -13 -9 -48 27 -43 44 3 9 -2 7 -14 -5
-10 -12 -15 -15 -10 -8 15 23 -11 14 -28 -9 -16 -23 -16 -23 -6 -1 14 31 12
41 -5 19 -8 -11 -17 -17 -20 -15 -3 3 4 15 15 27 23 24 10 31 -13 7 -13 -13
-16 -13 -27 1 -11 12 -10 13 3 9 18 -8 32 11 16 21 -8 5 -10 2 -5 -7 4 -8 1
-6 -7 4 -9 10 -14 33 -13 51 2 26 -1 32 -15 32 -10 -1 -17 4 -16 9 1 6 8 9 16
8 9 -1 10 2 2 10 -7 7 -15 6 -25 -3 -17 -14 -51 -6 -41 10 3 5 1 10 -5 10 -7
0 -10 -7 -6 -15 3 -8 1 -15 -4 -15 -6 0 -10 6 -11 13 0 6 -4 3 -9 -8 -5 -12
-9 -14 -9 -6 -1 8 7 23 16 34 10 11 12 17 6 13 -8 -4 -13 -1 -13 9 0 9 -5 13
-10 10 -7 -5 -8 -11 -1 -19 7 -8 4 -12 -12 -13 -12 -1 -17 1 -11 5 5 4 10 21
11 37 0 28 -3 31 -28 29 -16 -1 -29 2 -29 6 0 5 -9 7 -20 5 -12 -2 -18 0 -15
6 4 5 11 7 16 4 5 -4 9 -1 9 4 0 15 -23 14 -38 -1 -7 -7 -12 -8 -12 -4 0 4 10
16 22 27 l23 19 -27 -9 c-21 -8 -29 -6 -40 7 -12 15 -11 16 5 3 21 -17 22 -8
1 24 -14 21 -14 24 3 34 24 14 7 14 -20 0 -21 -11 -21 -11 -5 7 12 14 14 24 7
34 -8 12 -9 12 -7 -4 2 -10 -3 -21 -10 -23 -7 -3 -12 -1 -11 4 3 18 -1 34 -9
29 -4 -2 -14 -1 -22 4 -10 6 -20 4 -31 -6 -13 -12 -19 -12 -25 -3 -4 7 -3 10
4 5 14 -9 31 22 24 46 -4 15 -10 18 -31 13 -25 -6 -25 -6 -6 8 11 9 24 13 30
10 5 -2 -1 5 -14 17 -13 11 -31 18 -38 15 -8 -3 -24 -5 -34 -5 -11 0 -18 -4
-15 -8 3 -5 -1 -9 -9 -9 -13 0 -12 3 1 18 9 10 21 16 25 13 5 -3 6 2 2 11 -3
9 -9 13 -12 8 -10 -14 -45 -39 -38 -27 4 7 0 17 -8 24 -9 7 -13 21 -10 30 3 9
-1 23 -10 30 -8 7 -15 18 -15 24 0 7 3 6 9 -2 6 -11 10 -10 19 1 9 11 8 13 -6
12 -9 0 -23 -4 -30 -8 -8 -6 -10 -3 -5 9 5 14 3 15 -15 5 -27 -14 -30 3 -5 19
15 10 15 11 1 6 -14 -4 -52 24 -46 35 2 2 1 2 -2 1 -3 -2 -5 -9 -5 -15 0 -7
-8 -12 -18 -13 -11 -1 -12 0 -3 3 9 3 13 13 10 29 -3 18 -1 23 7 18 7 -4 9 -3
5 4 -3 6 -15 9 -26 7 -12 -2 -18 0 -15 6 4 5 10 7 14 5 4 -3 13 0 21 6 12 8
12 9 -2 4 -11 -3 -22 2 -28 14 -6 11 -15 20 -21 20 -6 0 -3 -7 6 -16 9 -9 14
-19 11 -21 -3 -3 -12 2 -21 11 -9 9 -20 14 -25 11 -5 -3 -11 0 -13 5 -3 6 -4
5 -2 -2 1 -7 7 -12 13 -11 6 2 16 -7 22 -20 11 -21 11 -22 -5 -2 -9 11 -18 19
-20 18 -13 -7 -25 -2 -25 11 0 9 -10 13 -29 12 -20 0 -27 -5 -23 -14 2 -8 8
-10 11 -5 9 12 31 14 31 3 0 -9 -24 -14 -34 -7 -2 1 -14 -7 -27 -18 l-24 -20
19 23 c12 13 14 22 7 22 -7 0 -9 5 -5 12 5 7 3 8 -7 2 -19 -12 -52 -12 -61 1
-4 5 -8 -463 -8 -1042 0 -753 3 -1054 11 -1059 8 -4 7 -9 -2 -16 -11 -8 -11
-9 1 -5 8 2 14 10 13 16 -2 6 2 11 8 11 7 0 18 8 26 18 9 9 7 4 -3 -13 -13
-23 -14 -27 -2 -18 8 7 19 9 23 5 5 -4 5 -2 1 5 -3 6 -1 15 5 19 8 4 9 3 5 -4
-4 -7 -2 -12 3 -12 6 0 11 5 11 12 0 6 3 8 6 5 4 -4 2 -13 -5 -21 -9 -11 -7
-13 14 -13 15 0 22 4 18 11 -3 6 -2 7 2 3 11 -10 16 -37 6 -37 -4 0 -7 -9 -8
-21 -2 -18 0 -19 15 -8 14 11 15 11 5 -1 -9 -9 -9 -17 -2 -26 7 -8 6 -14 -2
-20 -7 -4 -9 -3 -6 3 4 6 0 14 -9 17 -24 9 -31 7 -14 -4 13 -9 13 -11 0 -20
-10 -6 422 -9 1240 -10 809 0 1250 4 1240 10 -13 9 -7 14 12 11 4 0 5 6 2 14
-6 14 -18 19 -36 16 -15 -2 -8 17 8 23 8 3 12 10 9 16 -4 6 1 7 12 4 17 -5 17
-5 0 9 -16 13 -16 15 -2 21 11 4 14 2 9 -6 -5 -7 -2 -9 9 -5 12 4 15 1 12 -15
-3 -11 -1 -18 2 -14 12 12 12 40 0 49 -8 6 -5 7 7 3 13 -5 17 -2 13 9 -4 8 -1
17 5 21 6 4 8 3 5 -2 -3 -6 -2 -16 3 -24 8 -13 11 -12 22 3 13 17 14 17 14 -2
0 -11 -4 -18 -7 -15 -4 2 -10 0 -13 -5 -7 -11 13 -9 31 2 10 6 13 274 13 1243
l0 1235 -134 -2 c-124 -1 -136 -3 -153 -22z m20 -224 c-10 -3 -10 -10 -2 -26
12 -22 12 -22 -8 -2 -19 19 -13 36 12 34 6 0 4 -3 -2 -6z m-2399 -155 c-3 -5
-9 -6 -14 -3 -5 3 -13 -2 -18 -11 -6 -11 -11 -13 -16 -5 -4 6 -2 11 4 11 6 0
9 4 6 8 -2 4 6 8 19 8 13 0 21 -4 19 -8z m2179 -63 c-3 -9 -8 -14 -10 -11 -3
3 -2 9 2 15 9 16 15 13 8 -4z m-1953 -30 c11 -13 10 -14 -4 -9 -9 3 -16 10
-16 15 0 13 6 11 20 -6z m1930 -22 c0 -3 -9 -3 -20 0 -12 3 -24 -1 -29 -11 -8
-15 -12 -15 -23 -3 -7 8 -8 11 -2 8 7 -4 17 -1 23 7 10 12 51 11 51 -1z
m-1934 -16 c1 -9 -2 -15 -7 -11 -5 3 -6 10 -3 16 5 8 1 9 -10 5 -11 -4 -15 -3
-11 4 10 14 28 6 31 -14z m1847 -11 c4 -10 0 -12 -15 -8 -15 4 -17 7 -6 13 17
11 15 11 21 -5z m-18 -34 c-3 -3 -11 0 -18 7 -9 10 -8 11 6 5 10 -3 15 -9 12
-12z m-52 -44 c-4 -7 -8 -16 -8 -20 0 -5 -4 -8 -9 -7 -5 0 -12 -5 -16 -11 -5
-8 -9 -7 -13 5 -4 9 -3 14 2 11 4 -3 16 3 26 14 20 22 30 26 18 8z m24 -23 c0
-8 -4 -12 -9 -9 -4 3 -8 9 -8 15 0 5 4 9 8 9 5 0 9 -7 9 -15z m-1589 -13 c9
-6 6 -12 -13 -20 -15 -7 -25 -8 -25 -2 0 6 8 10 18 10 14 0 15 2 2 10 -8 5
-10 10 -5 10 6 0 16 -4 23 -8z m18 -51 c-4 -5 0 -12 6 -14 8 -3 6 -6 -4 -6
-18 -1 -24 10 -11 22 9 10 15 8 9 -2z m69 -71 c-3 -4 -16 -10 -29 -12 -18 -4
-23 -1 -21 11 2 9 4 19 4 23 1 4 12 3 26 -4 13 -6 22 -14 20 -18z m1375 19
c13 -9 13 -10 0 -8 -27 3 -40 -1 -37 -10 1 -5 -2 -9 -7 -9 -5 0 -12 -6 -16
-12 -5 -8 -9 -7 -13 5 -4 9 -3 14 2 11 4 -3 16 3 26 14 21 23 24 24 45 9z
m-220 -174 c7 -9 8 -15 2 -15 -5 0 -12 7 -16 15 -3 8 -4 15 -2 15 2 0 9 -7 16
-15z m-1050 1 c0 -2 -7 -7 -16 -10 -8 -3 -12 -2 -9 4 6 10 25 14 25 6z m975
-115 c2 -11 -1 -21 -7 -21 -5 0 -8 7 -4 15 3 8 1 15 -5 15 -6 0 -7 5 -4 11 9
13 15 7 20 -20z m-815 -4 c0 -6 3 -7 6 -4 10 9 46 -12 39 -24 -4 -5 -12 -9
-18 -9 -7 0 -6 4 3 10 16 10 10 13 -32 13 -10 0 -15 3 -13 8 3 4 1 10 -5 14
-5 3 -10 1 -10 -6 0 -7 -3 -10 -6 -6 -3 3 -3 10 0 16 8 12 36 3 36 -12z m38
-72 c-3 -3 -9 2 -12 12 -6 14 -5 15 5 6 7 -7 10 -15 7 -18z m583 -78 c-6 -8
-7 -18 -3 -22 4 -5 2 -5 -4 -2 -7 4 -17 0 -24 -8 -10 -12 -9 -15 6 -15 16 0
16 -2 4 -10 -9 -6 -17 -5 -23 3 -6 8 -7 4 -4 -10 5 -23 -7 -31 -18 -13 -5 8
60 90 72 90 3 0 0 -6 -6 -13z m-437 -12 c11 -8 15 -15 9 -15 -7 0 -15 5 -18
11 -4 6 -14 8 -22 5 -8 -3 -11 -1 -8 4 8 13 16 12 39 -5z m34 -84 c11 -7 10
-9 -3 -14 -9 -4 -14 -3 -10 2 3 5 -1 12 -7 14 -7 3 -8 6 -3 6 6 0 16 -3 23 -8z
m65 -14 c3 -8 -4 -13 -19 -13 -26 0 -32 11 -11 19 20 9 25 8 30 -6z m177 3 c0
-5 -5 -10 -11 -10 -5 0 -7 5 -4 10 3 6 8 10 11 10 2 0 4 -4 4 -10z m-1284
-1135 c-1 -8 -5 -17 -8 -21 -5 -4 -4 16 1 34 3 9 9 -1 7 -13z m2569 -125 c-3
-5 -12 -10 -18 -10 -7 0 -6 4 3 10 19 12 23 12 15 0z"/>
<path d="M548 1893 c7 -3 16 -2 19 1 4 3 -2 6 -13 5 -11 0 -14 -3 -6 -6z"/>
<path d="M2462 2471 c-11 -7 -11 -9 0 -14 9 -3 15 1 15 9 0 8 -1 14 -1 14 -1
0 -7 -4 -14 -9z"/>
<path d="M26 2312 c-3 -5 1 -9 9 -9 8 0 12 4 9 9 -3 4 -7 8 -9 8 -2 0 -6 -4
-9 -8z"/>
<path d="M2075 2139 c-4 -6 -5 -12 -2 -15 2 -3 7 2 10 11 7 17 1 20 -8 4z"/>
<path d="M395 2120 c-4 -6 -12 -7 -18 -3 -7 3 -4 -3 6 -14 14 -16 15 -22 5
-26 -10 -4 -9 -8 3 -22 11 -11 19 -13 23 -6 4 6 0 11 -11 11 -17 1 -17 1 1 15
17 13 18 15 2 21 -13 5 -14 9 -5 20 6 8 9 14 6 14 -3 0 -9 -5 -12 -10z"/>
<path d="M1944 2012 c4 -3 14 -7 22 -8 9 -1 13 0 10 4 -4 3 -14 7 -22 8 -9 1
-13 0 -10 -4z"/>
<path d="M1835 1890 c-3 -6 1 -7 9 -4 18 7 21 14 7 14 -6 0 -13 -4 -16 -10z"/>
<path d="M645 1860 c-16 -7 -17 -9 -3 -9 9 -1 20 4 23 9 7 11 7 11 -20 0z"/>
<path d="M650 1830 c8 -5 20 -10 25 -10 6 0 3 5 -5 10 -8 5 -19 10 -25 10 -5
0 -3 -5 5 -10z"/>
<path d="M713 1779 c-2 -23 3 -25 10 -4 4 8 3 16 -1 19 -4 3 -9 -4 -9 -15z"/>
<path d="M1740 1776 c0 -8 4 -17 9 -20 5 -4 7 3 4 14 -6 23 -13 26 -13 6z"/>
<path d="M1436 1493 c-6 -14 -5 -15 5 -6 7 7 10 15 7 18 -3 3 -9 -2 -12 -12z"/>
<path d="M1221 1374 c-9 -20 -9 -25 0 -22 7 2 14 14 16 26 4 29 -1 28 -16 -4z"/>
<path d="M105 170 c-3 -5 1 -10 10 -10 9 0 13 5 10 10 -3 6 -8 10 -10 10 -2 0
-7 -4 -10 -10z"/>
<path d="M110 140 c-8 -5 -12 -12 -9 -15 4 -3 12 1 19 10 14 17 11 19 -10 5z"/>
<path d="M2600 140 c-9 -6 -10 -10 -3 -10 6 0 15 5 18 10 8 12 4 12 -15 0z"/>
</g>
</svg>
